<svg height="472pt" viewBox="-60 0 472 472" width="472pt" xmlns="http://www.w3.org/2000/svg"><path d="m0 408h352v64h-352zm0 0" fill="#e3584b"/><path d="m0 0h352v408h-352zm0 0" fill="#4398d1"/><path d="m176 48c-75.109375 0-136 60.890625-136 136s60.890625 136 136 136 136-60.890625 136-136-60.890625-136-136-136zm0 176c-22.089844 0-40-17.910156-40-40s17.910156-40 40-40 40 17.910156 40 40-17.910156 40-40 40zm0 0" fill="#87ced9"/><path d="m270.070312 85.929688-68 68c11.347657 9.746093 16.28125 25.023437 12.777344 39.566406-3.507812 14.539062-14.859375 25.894531-29.402344 29.398437-14.539062 3.503907-29.820312-1.429687-39.566406-12.773437l-68 68c53.074219 53.070312 139.121094 53.070312 192.191406 0 53.074219-53.074219 53.074219-139.121094 0-192.191406zm0 0" fill="#71c4d1"/><path d="m176 264v-16c35.328125-.039062 63.960938-28.671875 64-64h16c-.046875 44.164062-35.835938 79.953125-80 80zm0 0" fill="#5eb3d1"/><path d="m112 184h-16c.046875-44.164062 35.835938-79.953125 80-80v16c-35.328125.039062-63.960938 28.671875-64 64zm0 0" fill="#5eb3d1"/><path d="m80 184h-16c.066406-61.828125 50.171875-111.933594 112-112v16c-52.996094.058594-95.941406 43.003906-96 96zm0 0" fill="#5eb3d1"/><path d="m176 296v-16c52.996094-.058594 95.941406-43.003906 96-96h16c-.066406 61.828125-50.171875 111.933594-112 112zm0 0" fill="#5eb3d1"/><path d="m24 24h16v16h-16zm0 0" fill="#126099"/><path d="m312 24h16v16h-16zm0 0" fill="#126099"/><path d="m312 368h16v16h-16zm0 0" fill="#126099"/><path d="m40 408h176v32h-176zm0 0" fill="#ffc14d"/><g fill="#eb7c28"><path d="m56 408h16v32h-16zm0 0"/><path d="m88 408h16v32h-16zm0 0"/><path d="m120 408h16v32h-16zm0 0"/><path d="m152 408h16v32h-16zm0 0"/><path d="m184 408h16v32h-16zm0 0"/></g><path d="m264 408h48v32h-48zm0 0" fill="#ffc14d"/><path d="m280 408h16v32h-16zm0 0" fill="#eb7c28"/><path d="m279.785156 96.214844c45.726563 53.960937 42.429688 133.972656-7.582031 183.988281-50.015625 50.011719-130.027344 53.308594-183.988281 7.582031 33.105468 39.171875 85.441406 56.382813 135.332031 44.496094 49.894531-11.886719 88.847656-50.839844 100.734375-100.734375 11.886719-49.890625-5.324219-102.226563-44.496094-135.332031zm0 0" fill="#368ec9"/><path d="m62.648438 376c-16.925782 0-30.648438-13.722656-30.648438-30.648438 0-10.765624 5.648438-20.742187 14.878906-26.28125l105.121094-63.070312-63.070312 105.121094c-5.539063 9.230468-15.515626 14.878906-26.28125 14.878906zm0 0" fill="#e3584b"/><path d="m56 336h16v16h-16zm0 0" fill="#c9473a"/></svg>