<?xml version="1.0" encoding="iso-8859-1"?>
<!-- Generator: Adobe Illustrator 19.0.0, SVG Export Plug-In . SVG Version: 6.00 Build 0)  -->
<svg version="1.1" id="Capa_1" xmlns="http://www.w3.org/2000/svg" xmlns:xlink="http://www.w3.org/1999/xlink" x="0px" y="0px"
	 viewBox="0 0 511.999 511.999" style="enable-background:new 0 0 511.999 511.999;" xml:space="preserve">
<path style="fill:#00DEC2;" d="M271,185.603h-30.001V69.327c0-31.799,25.87-57.669,57.669-57.669s57.668,25.87,57.668,57.669v7.395
	h38.335v30.001h-68.336V69.327c0-15.255-12.411-27.668-27.667-27.668S271,54.07,271,69.327V185.603z"/>
<path style="fill:#585858;" d="M511.5,421.331l-20.988-182.924c-3.493-50.017-45.429-89.14-95.64-89.14
	c-27.837,0-53.602,11.702-71.804,32.359H188.931c-18.203-20.657-43.967-32.359-71.804-32.359c-50.211,0-92.147,39.123-95.64,89.14
	L0.504,421.297c-2.408,20.038,3.892,40.188,17.285,55.287c13.392,15.098,32.648,23.758,52.831,23.758h43.909l55.004-117.337h172.936
	l55.004,117.337h43.909c20.182,0,39.438-8.659,52.831-23.757C507.596,461.494,513.897,441.358,511.5,421.331z"/>
<path style="fill:#2D2D2D;" d="M511.5,421.331l-20.988-182.924c-3.493-50.017-45.429-89.14-95.64-89.14
	c-27.837,0-53.602,11.702-71.804,32.359h-67.069v201.377h86.468L397.47,500.34h43.909c20.182,0,39.438-8.659,52.831-23.757
	C507.596,461.494,513.897,441.358,511.5,421.331z"/>
<rect x="211.166" y="299.669" style="fill:#C1C1C1;" width="89.673" height="30.001"/>
<rect x="255.998" y="299.669" style="fill:#9E9E9E;" width="44.834" height="30.001"/>
<polygon style="fill:#C1C1C1;" points="159.997,245.27 132.329,245.27 132.329,217.604 102.328,217.604 102.328,245.27 
	74.66,245.27 74.66,275.271 102.328,275.271 102.328,302.939 132.329,302.939 132.329,275.271 159.997,275.271 "/>
<rect x="379.672" y="216.437" style="fill:#00DEC2;" width="30.001" height="30.001"/>
<rect x="379.672" y="276.228" style="fill:#6FC8F1;" width="30.001" height="30.001"/>
<rect x="409.563" y="246.327" style="fill:#FF4F19;" width="30.001" height="30.001"/>
<rect x="349.771" y="246.327" style="fill:#FFEBCC;" width="30.001" height="30.001"/>
<g>
</g>
<g>
</g>
<g>
</g>
<g>
</g>
<g>
</g>
<g>
</g>
<g>
</g>
<g>
</g>
<g>
</g>
<g>
</g>
<g>
</g>
<g>
</g>
<g>
</g>
<g>
</g>
<g>
</g>
</svg>
